<mxfile host="Electron" modified="2024-05-14T12:55:25.291Z" agent="Mozilla/5.0 (Windows NT 10.0; Win64; x64) AppleWebKit/537.36 (KHTML, like Gecko) draw.io/24.2.5 Chrome/120.0.6099.109 Electron/28.1.0 Safari/537.36" etag="fI-4khbOd0ZkyXLt_WjM" version="24.2.5" type="device">
  <diagram id="C5RBs43oDa-KdzZeNtuy" name="Page-1">
    <mxGraphModel dx="1105" dy="1823" grid="1" gridSize="10" guides="1" tooltips="1" connect="1" arrows="1" fold="1" page="1" pageScale="1" pageWidth="827" pageHeight="1169" math="0" shadow="0">
      <root>
        <mxCell id="WIyWlLk6GJQsqaUBKTNV-0" />
        <mxCell id="WIyWlLk6GJQsqaUBKTNV-1" parent="WIyWlLk6GJQsqaUBKTNV-0" />
        <mxCell id="m4J94JmyXrioiGSEYabI-78" value="" style="edgeStyle=orthogonalEdgeStyle;rounded=0;orthogonalLoop=1;jettySize=auto;html=1;" edge="1" parent="WIyWlLk6GJQsqaUBKTNV-1" source="m4J94JmyXrioiGSEYabI-0" target="m4J94JmyXrioiGSEYabI-44">
          <mxGeometry relative="1" as="geometry" />
        </mxCell>
        <mxCell id="m4J94JmyXrioiGSEYabI-0" value="START" style="ellipse;whiteSpace=wrap;html=1;" vertex="1" parent="WIyWlLk6GJQsqaUBKTNV-1">
          <mxGeometry x="340" y="-10" width="120" height="60" as="geometry" />
        </mxCell>
        <mxCell id="m4J94JmyXrioiGSEYabI-1" value="STOP" style="ellipse;whiteSpace=wrap;html=1;" vertex="1" parent="WIyWlLk6GJQsqaUBKTNV-1">
          <mxGeometry x="340" y="934" width="120" height="60" as="geometry" />
        </mxCell>
        <mxCell id="m4J94JmyXrioiGSEYabI-59" value="" style="edgeStyle=orthogonalEdgeStyle;rounded=0;orthogonalLoop=1;jettySize=auto;html=1;entryX=0.5;entryY=0;entryDx=0;entryDy=0;" edge="1" parent="WIyWlLk6GJQsqaUBKTNV-1" source="m4J94JmyXrioiGSEYabI-42" target="m4J94JmyXrioiGSEYabI-44">
          <mxGeometry relative="1" as="geometry" />
        </mxCell>
        <mxCell id="m4J94JmyXrioiGSEYabI-42" value="Felkell a hallgató" style="rounded=0;whiteSpace=wrap;html=1;" vertex="1" parent="WIyWlLk6GJQsqaUBKTNV-1">
          <mxGeometry x="340" y="80" width="120" height="40" as="geometry" />
        </mxCell>
        <mxCell id="m4J94JmyXrioiGSEYabI-71" value="" style="edgeStyle=orthogonalEdgeStyle;rounded=0;orthogonalLoop=1;jettySize=auto;html=1;" edge="1" parent="WIyWlLk6GJQsqaUBKTNV-1" source="m4J94JmyXrioiGSEYabI-44" target="m4J94JmyXrioiGSEYabI-47">
          <mxGeometry relative="1" as="geometry" />
        </mxCell>
        <mxCell id="m4J94JmyXrioiGSEYabI-44" value="Megreggelizik" style="rounded=0;whiteSpace=wrap;html=1;" vertex="1" parent="WIyWlLk6GJQsqaUBKTNV-1">
          <mxGeometry x="340" y="150" width="120" height="40" as="geometry" />
        </mxCell>
        <mxCell id="m4J94JmyXrioiGSEYabI-60" value="" style="edgeStyle=orthogonalEdgeStyle;rounded=0;orthogonalLoop=1;jettySize=auto;html=1;" edge="1" parent="WIyWlLk6GJQsqaUBKTNV-1" source="m4J94JmyXrioiGSEYabI-46">
          <mxGeometry relative="1" as="geometry">
            <mxPoint x="400" y="290" as="targetPoint" />
          </mxGeometry>
        </mxCell>
        <mxCell id="m4J94JmyXrioiGSEYabI-46" value="Elmegy az egyetemre" style="rounded=0;whiteSpace=wrap;html=1;" vertex="1" parent="WIyWlLk6GJQsqaUBKTNV-1">
          <mxGeometry x="340" y="220" width="120" height="40" as="geometry" />
        </mxCell>
        <mxCell id="m4J94JmyXrioiGSEYabI-62" value="" style="edgeStyle=orthogonalEdgeStyle;rounded=0;orthogonalLoop=1;jettySize=auto;html=1;entryX=0.5;entryY=0;entryDx=0;entryDy=0;" edge="1" parent="WIyWlLk6GJQsqaUBKTNV-1" source="m4J94JmyXrioiGSEYabI-47" target="m4J94JmyXrioiGSEYabI-48">
          <mxGeometry relative="1" as="geometry" />
        </mxCell>
        <mxCell id="m4J94JmyXrioiGSEYabI-47" value="Végez az egyetemen" style="rounded=0;whiteSpace=wrap;html=1;" vertex="1" parent="WIyWlLk6GJQsqaUBKTNV-1">
          <mxGeometry x="340" y="290" width="120" height="40" as="geometry" />
        </mxCell>
        <mxCell id="m4J94JmyXrioiGSEYabI-64" value="" style="edgeStyle=orthogonalEdgeStyle;rounded=0;orthogonalLoop=1;jettySize=auto;html=1;" edge="1" parent="WIyWlLk6GJQsqaUBKTNV-1" source="m4J94JmyXrioiGSEYabI-48" target="m4J94JmyXrioiGSEYabI-49">
          <mxGeometry relative="1" as="geometry" />
        </mxCell>
        <mxCell id="m4J94JmyXrioiGSEYabI-48" value="Haza megy" style="rounded=0;whiteSpace=wrap;html=1;" vertex="1" parent="WIyWlLk6GJQsqaUBKTNV-1">
          <mxGeometry x="340" y="360" width="120" height="40" as="geometry" />
        </mxCell>
        <mxCell id="m4J94JmyXrioiGSEYabI-65" value="" style="edgeStyle=orthogonalEdgeStyle;rounded=0;orthogonalLoop=1;jettySize=auto;html=1;" edge="1" parent="WIyWlLk6GJQsqaUBKTNV-1" source="m4J94JmyXrioiGSEYabI-49" target="m4J94JmyXrioiGSEYabI-51">
          <mxGeometry relative="1" as="geometry" />
        </mxCell>
        <mxCell id="m4J94JmyXrioiGSEYabI-49" value="Tanul" style="rounded=0;whiteSpace=wrap;html=1;" vertex="1" parent="WIyWlLk6GJQsqaUBKTNV-1">
          <mxGeometry x="340" y="440" width="120" height="40" as="geometry" />
        </mxCell>
        <mxCell id="m4J94JmyXrioiGSEYabI-50" value="Elmegy kávézni" style="rounded=0;whiteSpace=wrap;html=1;" vertex="1" parent="WIyWlLk6GJQsqaUBKTNV-1">
          <mxGeometry x="531" y="525" width="120" height="40" as="geometry" />
        </mxCell>
        <mxCell id="m4J94JmyXrioiGSEYabI-66" value="" style="edgeStyle=orthogonalEdgeStyle;rounded=0;orthogonalLoop=1;jettySize=auto;html=1;entryX=0.5;entryY=0;entryDx=0;entryDy=0;" edge="1" parent="WIyWlLk6GJQsqaUBKTNV-1" source="m4J94JmyXrioiGSEYabI-51" target="m4J94JmyXrioiGSEYabI-52">
          <mxGeometry relative="1" as="geometry" />
        </mxCell>
        <mxCell id="m4J94JmyXrioiGSEYabI-51" value="Van kedve?" style="rhombus;whiteSpace=wrap;html=1;" vertex="1" parent="WIyWlLk6GJQsqaUBKTNV-1">
          <mxGeometry x="330" y="516" width="140" height="60" as="geometry" />
        </mxCell>
        <mxCell id="m4J94JmyXrioiGSEYabI-72" value="" style="edgeStyle=orthogonalEdgeStyle;rounded=0;orthogonalLoop=1;jettySize=auto;html=1;entryX=0.5;entryY=0;entryDx=0;entryDy=0;" edge="1" parent="WIyWlLk6GJQsqaUBKTNV-1" source="m4J94JmyXrioiGSEYabI-52" target="m4J94JmyXrioiGSEYabI-53">
          <mxGeometry relative="1" as="geometry" />
        </mxCell>
        <mxCell id="m4J94JmyXrioiGSEYabI-52" value="Haza megy" style="rounded=0;whiteSpace=wrap;html=1;" vertex="1" parent="WIyWlLk6GJQsqaUBKTNV-1">
          <mxGeometry x="340" y="610" width="120" height="40" as="geometry" />
        </mxCell>
        <mxCell id="m4J94JmyXrioiGSEYabI-68" value="" style="edgeStyle=orthogonalEdgeStyle;rounded=0;orthogonalLoop=1;jettySize=auto;html=1;entryX=0.5;entryY=0;entryDx=0;entryDy=0;" edge="1" parent="WIyWlLk6GJQsqaUBKTNV-1" source="m4J94JmyXrioiGSEYabI-53" target="m4J94JmyXrioiGSEYabI-55">
          <mxGeometry relative="1" as="geometry" />
        </mxCell>
        <mxCell id="m4J94JmyXrioiGSEYabI-53" value="Vacsorázik" style="rounded=0;whiteSpace=wrap;html=1;" vertex="1" parent="WIyWlLk6GJQsqaUBKTNV-1">
          <mxGeometry x="340" y="690" width="120" height="40" as="geometry" />
        </mxCell>
        <mxCell id="m4J94JmyXrioiGSEYabI-54" value="Filmet néz" style="rounded=0;whiteSpace=wrap;html=1;" vertex="1" parent="WIyWlLk6GJQsqaUBKTNV-1">
          <mxGeometry x="536" y="773" width="120" height="40" as="geometry" />
        </mxCell>
        <mxCell id="m4J94JmyXrioiGSEYabI-69" value="" style="edgeStyle=orthogonalEdgeStyle;rounded=0;orthogonalLoop=1;jettySize=auto;html=1;" edge="1" parent="WIyWlLk6GJQsqaUBKTNV-1" source="m4J94JmyXrioiGSEYabI-55" target="m4J94JmyXrioiGSEYabI-57">
          <mxGeometry relative="1" as="geometry" />
        </mxCell>
        <mxCell id="m4J94JmyXrioiGSEYabI-55" value="Van ideje?" style="rhombus;whiteSpace=wrap;html=1;" vertex="1" parent="WIyWlLk6GJQsqaUBKTNV-1">
          <mxGeometry x="330" y="765" width="140" height="60" as="geometry" />
        </mxCell>
        <mxCell id="m4J94JmyXrioiGSEYabI-70" value="" style="edgeStyle=orthogonalEdgeStyle;rounded=0;orthogonalLoop=1;jettySize=auto;html=1;" edge="1" parent="WIyWlLk6GJQsqaUBKTNV-1" source="m4J94JmyXrioiGSEYabI-57" target="m4J94JmyXrioiGSEYabI-1">
          <mxGeometry relative="1" as="geometry" />
        </mxCell>
        <mxCell id="m4J94JmyXrioiGSEYabI-57" value="Lefekszik aludni." style="rounded=0;whiteSpace=wrap;html=1;" vertex="1" parent="WIyWlLk6GJQsqaUBKTNV-1">
          <mxGeometry x="340" y="860" width="120" height="40" as="geometry" />
        </mxCell>
        <mxCell id="m4J94JmyXrioiGSEYabI-73" value="" style="ellipse;whiteSpace=wrap;html=1;" vertex="1" parent="WIyWlLk6GJQsqaUBKTNV-1">
          <mxGeometry x="395" y="834" width="10" height="10" as="geometry" />
        </mxCell>
        <mxCell id="m4J94JmyXrioiGSEYabI-75" value="" style="endArrow=classic;html=1;rounded=0;exitX=0.5;exitY=1;exitDx=0;exitDy=0;entryX=1;entryY=0.5;entryDx=0;entryDy=0;" edge="1" parent="WIyWlLk6GJQsqaUBKTNV-1">
          <mxGeometry width="50" height="50" relative="1" as="geometry">
            <mxPoint x="583" y="814" as="sourcePoint" />
            <mxPoint x="403" y="838" as="targetPoint" />
            <Array as="points">
              <mxPoint x="583" y="838" />
            </Array>
          </mxGeometry>
        </mxCell>
        <mxCell id="m4J94JmyXrioiGSEYabI-76" value="" style="ellipse;whiteSpace=wrap;html=1;" vertex="1" parent="WIyWlLk6GJQsqaUBKTNV-1">
          <mxGeometry x="395" y="584" width="10" height="10" as="geometry" />
        </mxCell>
        <mxCell id="m4J94JmyXrioiGSEYabI-77" value="" style="endArrow=classic;html=1;rounded=0;exitX=0.5;exitY=1;exitDx=0;exitDy=0;entryX=1;entryY=0.5;entryDx=0;entryDy=0;" edge="1" parent="WIyWlLk6GJQsqaUBKTNV-1">
          <mxGeometry width="50" height="50" relative="1" as="geometry">
            <mxPoint x="586" y="565" as="sourcePoint" />
            <mxPoint x="406" y="589" as="targetPoint" />
            <Array as="points">
              <mxPoint x="586" y="589" />
            </Array>
          </mxGeometry>
        </mxCell>
        <mxCell id="m4J94JmyXrioiGSEYabI-79" value="" style="endArrow=classic;html=1;rounded=0;" edge="1" parent="WIyWlLk6GJQsqaUBKTNV-1">
          <mxGeometry width="50" height="50" relative="1" as="geometry">
            <mxPoint x="466" y="546.5" as="sourcePoint" />
            <mxPoint x="531" y="546.5" as="targetPoint" />
            <Array as="points">
              <mxPoint x="531" y="546.5" />
            </Array>
          </mxGeometry>
        </mxCell>
        <mxCell id="m4J94JmyXrioiGSEYabI-80" value="" style="endArrow=classic;html=1;rounded=0;" edge="1" parent="WIyWlLk6GJQsqaUBKTNV-1">
          <mxGeometry width="50" height="50" relative="1" as="geometry">
            <mxPoint x="470" y="795.5" as="sourcePoint" />
            <mxPoint x="535" y="795.5" as="targetPoint" />
            <Array as="points">
              <mxPoint x="535" y="795.5" />
            </Array>
          </mxGeometry>
        </mxCell>
      </root>
    </mxGraphModel>
  </diagram>
</mxfile>
